<svg width="99" height="87" viewBox="0 0 99 87" fill="none" xmlns="http://www.w3.org/2000/svg">
<path d="M70.8344 87C64.2484 85.2815 59.3439 81.4864 56.121 75.6148C52.8981 69.6 51.2866 62.5111 51.2866 54.3481C51.2866 41.4593 55.3503 30.3605 63.4777 21.0518C71.7452 11.6 81.3439 4.58272 92.2739 0L99 11.1704L98.7898 13.3185C93.3248 15.3235 88.4904 19.6198 84.2866 26.2074C80.0828 32.7951 77.9809 39.6691 77.9809 46.8296C77.9809 51.4123 78.8917 55.2074 80.7134 58.2148C82.535 61.079 85.0573 62.6543 88.2803 62.9407L87.6497 67.237L70.8344 87ZM19.5478 87C12.9618 85.2815 8.05732 81.4864 4.83439 75.6148C1.61146 69.6 0 62.5111 0 54.3481C0 41.4593 4.06369 30.3605 12.1911 21.0518C20.4586 11.6 30.0573 4.58272 40.9873 0L47.7134 11.1704L47.5032 13.3185C42.0382 15.3235 37.2038 19.6198 33 26.2074C28.7962 32.7951 26.6943 39.6691 26.6943 46.8296C26.6943 51.4123 27.6051 55.2074 29.4267 58.2148C31.2484 61.079 33.7707 62.6543 36.9936 62.9407L36.3631 67.237L19.5478 87Z" fill="#DBE2DC"/>
</svg>
